<?xml version="1.0" encoding="UTF-8"?>
<svg width="310px" height="342px" viewBox="0 0 310 342" version="1.1" xmlns="http://www.w3.org/2000/svg" xmlns:xlink="http://www.w3.org/1999/xlink">
    <!-- Generator: Sketch 41.2 (35397) - http://www.bohemiancoding.com/sketch -->
    <title>Group</title>
    <desc>Created with Sketch.</desc>
    <defs></defs>
    <g id="Page-1" stroke="none" stroke-width="1" fill="none" fill-rule="evenodd">
        <g id="noun_220391_cc">
            <g id="Group">
                <path d="M193,27 L116,32" id="Shape" stroke="#FFFFFF"></path>
                <path d="M203.903646,34.9552971 C202.318127,43.5860157 184.481038,46.8739084 148.80686,53.449694 C114.718202,59.614493 79.8367839,65.779292 76.2693661,55.504627 C73.8910876,48.1068682 87.7643789,36.1882569 98.0702524,26.7355651 C111.943544,14.4059671 127.798734,0.843409277 148.80686,0.0214360773 C176.949823,-0.800537122 205.885544,22.2147125 203.903646,34.9552971 Z" id="Shape" fill="#363c43"></path>
                <path d="M159.745445,94.6201782 C177.537865,90.1285398 202.842641,84.4119091 234.078224,82.3702552 C275.989259,79.1036091 309.201778,83.1869168 309.992552,79.1036091 C310.387939,76.2452938 294.967841,70.9369938 281.129292,67.6703477 C228.938192,55.0120939 187.027156,60.7287247 160.140832,63.58704 C105.182021,69.7120015 77.1095355,66.8536861 65.6433089,63.58704 C56.549405,61.1370554 39.5477586,52.1537786 20.9645637,57.8704093 C12.266047,60.3203939 -0.386341024,67.2620169 0.00904610136,74.2036399 C0.404433226,89.3118783 60.5032762,97.8868243 66.4340831,98.7034859 C87.3896007,101.561801 119.415958,103.195124 159.745445,94.6201782 Z" id="Shape" fill="#363c43"></path>
                <path d="M153.302557,152.794936 C133.092824,193.289552 123.186091,201.879319 114.468167,206.787758 C107.731589,210.469086 98.2211259,215.377525 90.2957401,211.696196 C72.0673527,203.515465 77.6151228,159.33952 78.4076614,152.385899 C79.9927385,138.887694 81.974085,125.389488 92.2770865,116.799721 C97.032318,113.118392 101.39128,111.482246 118.43086,108.61899 C149.339864,103.301515 165.190636,100.847296 168.36079,105.346698 C173.512291,112.300319 165.983175,127.843707 153.302557,152.794936 Z" id="Shape" fill="#363c43"></path>
                <path d="M222.155985,164.254949 C230.861446,188.696276 237.588393,195.213964 234.027068,203.768428 C229.674338,213.544959 215.429039,216.396447 195.643901,220.062646 C182.981413,222.506779 174.275952,222.099424 170.714627,221.692068 C156.865031,220.470002 145.785354,219.655291 142.619732,212.730248 C138.662705,203.768428 154.490815,195.213964 166.361897,164.254949 C173.088844,147.14602 176.650169,132.073868 176.650169,132.073868 C180.211494,117.816427 181.398602,107.632541 189.312657,102.744276 C190.499765,101.929565 195.248198,99.0780765 200.392334,100.300143 C211.867714,103.558986 209.097794,127.185603 222.155985,164.254949 Z" id="Shape" fill="#363c43"></path>
                <path d="M263.359173,263.43117 C266.513846,255.245525 257.44416,242.148494 248.768808,234.781414 C230.235101,219.637971 211.701395,230.688591 173.056645,233.962849 C113.11785,238.874236 73.6844314,218.819407 64.2204111,237.237107 C63.8260769,238.055672 60.6714035,244.194905 62.6430744,249.924856 C65.7977478,258.929065 80.7824467,260.566194 87.4861278,260.975476 C134.017561,264.659016 157.283278,266.296145 172.662311,265.886863 C232.995441,264.249734 258.627163,275.300354 263.359173,263.43117 Z" id="Shape" fill="#363c43"></path>
                <path d="M154.7885,319.19669 C158.361778,325.681024 160.346933,327.302108 159.949902,330.544275 C157.964747,339.054963 139.304295,345.134026 125.805245,340.270776 C120.246812,338.244421 119.849782,339.054963 113.497287,333.786442 C103.571515,325.275753 92.4546499,332.165358 92.057619,319.19669 C92.057619,314.73871 90.4694954,276.643248 103.968546,270.564185 C108.732917,268.53783 110.718071,272.590539 125.408214,272.99581 L132.951801,272.99581 C138.113203,272.590539 138.113203,272.185268 139.304295,272.590539 C146.05382,274.211623 142.480542,297.717334 154.7885,319.19669 Z" id="Shape" fill="#363c43"></path>
                <path d="M239.976661,286.1095 C239.183953,293.771924 221.348025,296.594922 210.646468,296.998208 C205.097512,296.998208 184.090752,297.401493 181.316274,286.1095 C180.127212,281.67336 182.505336,276.430648 184.88346,273.60765 C189.243354,268.768224 193.999601,271.994508 209.85376,272.801079 C222.933441,273.204365 227.689688,271.591223 233.634998,276.430648 C235.616767,277.640505 240.373015,281.67336 239.976661,286.1095 Z" id="Shape" fill="#363c43"></path>
                <path d="M234.586026,338.593279 C231.406955,339 225.048812,339 212.332526,339 C198.821472,339 197.231936,338.593279 196.039785,337.373117 C189.284258,330.865585 201.205776,307.682503 204.384847,301.174971 C203.590079,302.801854 203.590079,303.208575 203.590079,303.615295 C204.384847,304.428737 207.961303,301.581692 213.524678,300.36153 C217.498517,299.548088 217.101133,300.36153 223.061892,300.36153 C228.227883,299.954809 229.817419,299.954809 233.393874,300.36153 C236.97033,301.174971 242.136321,301.581692 246.11016,306.05562 C253.263071,314.190035 252.070919,326.798378 251.673535,334.119351" id="Shape" fill="#363c43"></path>
            </g>
        </g>
    </g>
</svg>
